<mxfile host="app.diagrams.net" modified="2024-04-15T15:12:20.182Z" agent="Mozilla/5.0 (X11; Linux x86_64) AppleWebKit/537.36 (KHTML, like Gecko) Chrome/123.0.0.0 Safari/537.36" etag="BiXJklUJHMDZdG5SzfPa" version="24.2.5" type="device">
  <diagram name="Страница — 1" id="sR_zT7QSDf-IjtBqOzaV">
    <mxGraphModel dx="1111" dy="573" grid="1" gridSize="10" guides="1" tooltips="1" connect="1" arrows="1" fold="1" page="1" pageScale="1" pageWidth="827" pageHeight="1169" math="0" shadow="0">
      <root>
        <mxCell id="0" />
        <mxCell id="1" parent="0" />
        <mxCell id="OhuxNsMzgNKIlBZW78PJ-1" value="AbstractNotifyManager" style="swimlane;fontStyle=0;childLayout=stackLayout;horizontal=1;startSize=30;horizontalStack=0;resizeParent=1;resizeParentMax=0;resizeLast=0;collapsible=1;marginBottom=0;whiteSpace=wrap;html=1;" vertex="1" parent="1">
          <mxGeometry x="110" y="80" width="140" height="150" as="geometry" />
        </mxCell>
        <mxCell id="OhuxNsMzgNKIlBZW78PJ-2" value="subscribe" style="text;strokeColor=none;fillColor=none;align=left;verticalAlign=middle;spacingLeft=4;spacingRight=4;overflow=hidden;points=[[0,0.5],[1,0.5]];portConstraint=eastwest;rotatable=0;whiteSpace=wrap;html=1;" vertex="1" parent="OhuxNsMzgNKIlBZW78PJ-1">
          <mxGeometry y="30" width="140" height="30" as="geometry" />
        </mxCell>
        <mxCell id="OhuxNsMzgNKIlBZW78PJ-3" value="unsubscribe" style="text;strokeColor=none;fillColor=none;align=left;verticalAlign=middle;spacingLeft=4;spacingRight=4;overflow=hidden;points=[[0,0.5],[1,0.5]];portConstraint=eastwest;rotatable=0;whiteSpace=wrap;html=1;" vertex="1" parent="OhuxNsMzgNKIlBZW78PJ-1">
          <mxGeometry y="60" width="140" height="30" as="geometry" />
        </mxCell>
        <mxCell id="OhuxNsMzgNKIlBZW78PJ-4" value="add_event" style="text;strokeColor=none;fillColor=none;align=left;verticalAlign=middle;spacingLeft=4;spacingRight=4;overflow=hidden;points=[[0,0.5],[1,0.5]];portConstraint=eastwest;rotatable=0;whiteSpace=wrap;html=1;" vertex="1" parent="OhuxNsMzgNKIlBZW78PJ-1">
          <mxGeometry y="90" width="140" height="30" as="geometry" />
        </mxCell>
        <mxCell id="OhuxNsMzgNKIlBZW78PJ-5" value="notify" style="text;strokeColor=none;fillColor=none;align=left;verticalAlign=middle;spacingLeft=4;spacingRight=4;overflow=hidden;points=[[0,0.5],[1,0.5]];portConstraint=eastwest;rotatable=0;whiteSpace=wrap;html=1;" vertex="1" parent="OhuxNsMzgNKIlBZW78PJ-1">
          <mxGeometry y="120" width="140" height="30" as="geometry" />
        </mxCell>
        <mxCell id="OhuxNsMzgNKIlBZW78PJ-6" value="AbstractNotifyWriter" style="swimlane;fontStyle=0;childLayout=stackLayout;horizontal=1;startSize=30;horizontalStack=0;resizeParent=1;resizeParentMax=0;resizeLast=0;collapsible=1;marginBottom=0;whiteSpace=wrap;html=1;" vertex="1" parent="1">
          <mxGeometry x="360" y="80" width="140" height="180" as="geometry" />
        </mxCell>
        <mxCell id="OhuxNsMzgNKIlBZW78PJ-7" value="__init__" style="text;strokeColor=none;fillColor=none;align=left;verticalAlign=middle;spacingLeft=4;spacingRight=4;overflow=hidden;points=[[0,0.5],[1,0.5]];portConstraint=eastwest;rotatable=0;whiteSpace=wrap;html=1;" vertex="1" parent="OhuxNsMzgNKIlBZW78PJ-6">
          <mxGeometry y="30" width="140" height="30" as="geometry" />
        </mxCell>
        <mxCell id="OhuxNsMzgNKIlBZW78PJ-8" value="init" style="text;strokeColor=none;fillColor=none;align=left;verticalAlign=middle;spacingLeft=4;spacingRight=4;overflow=hidden;points=[[0,0.5],[1,0.5]];portConstraint=eastwest;rotatable=0;whiteSpace=wrap;html=1;" vertex="1" parent="OhuxNsMzgNKIlBZW78PJ-6">
          <mxGeometry y="60" width="140" height="30" as="geometry" />
        </mxCell>
        <mxCell id="OhuxNsMzgNKIlBZW78PJ-9" value="configurate_notifier" style="text;strokeColor=none;fillColor=none;align=left;verticalAlign=middle;spacingLeft=4;spacingRight=4;overflow=hidden;points=[[0,0.5],[1,0.5]];portConstraint=eastwest;rotatable=0;whiteSpace=wrap;html=1;" vertex="1" parent="OhuxNsMzgNKIlBZW78PJ-6">
          <mxGeometry y="90" width="140" height="30" as="geometry" />
        </mxCell>
        <mxCell id="OhuxNsMzgNKIlBZW78PJ-14" style="edgeStyle=orthogonalEdgeStyle;rounded=0;orthogonalLoop=1;jettySize=auto;html=1;" edge="1" parent="OhuxNsMzgNKIlBZW78PJ-6" source="OhuxNsMzgNKIlBZW78PJ-10" target="OhuxNsMzgNKIlBZW78PJ-9">
          <mxGeometry relative="1" as="geometry">
            <Array as="points">
              <mxPoint x="160" y="135" />
              <mxPoint x="160" y="105" />
            </Array>
          </mxGeometry>
        </mxCell>
        <mxCell id="OhuxNsMzgNKIlBZW78PJ-10" value="send_notify" style="text;strokeColor=none;fillColor=none;align=left;verticalAlign=middle;spacingLeft=4;spacingRight=4;overflow=hidden;points=[[0,0.5],[1,0.5]];portConstraint=eastwest;rotatable=0;whiteSpace=wrap;html=1;" vertex="1" parent="OhuxNsMzgNKIlBZW78PJ-6">
          <mxGeometry y="120" width="140" height="30" as="geometry" />
        </mxCell>
        <mxCell id="OhuxNsMzgNKIlBZW78PJ-12" value="write_log" style="text;strokeColor=none;fillColor=none;align=left;verticalAlign=middle;spacingLeft=4;spacingRight=4;overflow=hidden;points=[[0,0.5],[1,0.5]];portConstraint=eastwest;rotatable=0;whiteSpace=wrap;html=1;" vertex="1" parent="OhuxNsMzgNKIlBZW78PJ-6">
          <mxGeometry y="150" width="140" height="30" as="geometry" />
        </mxCell>
        <mxCell id="OhuxNsMzgNKIlBZW78PJ-11" style="edgeStyle=orthogonalEdgeStyle;rounded=0;orthogonalLoop=1;jettySize=auto;html=1;" edge="1" parent="1" source="OhuxNsMzgNKIlBZW78PJ-9" target="OhuxNsMzgNKIlBZW78PJ-1">
          <mxGeometry relative="1" as="geometry" />
        </mxCell>
      </root>
    </mxGraphModel>
  </diagram>
</mxfile>
